<svg id="Layer_1" data-name="Layer 1" xmlns="http://www.w3.org/2000/svg" viewBox="0 0 16 16"><defs><style>.cls-1{fill:#2a1000;}</style></defs><path class="cls-1" d="M5.44,7.33c0-.19-1.09-4.61-2.51-4.57S.64,6.43.45,8.88c-.11,1.44-.6,4.29.61,4.93a1.43,1.43,0,0,0,1.77-.42c.26-.69-1.4-1.38-1.3-2.59A1.72,1.72,0,0,1,3,9.27a1.7,1.7,0,0,1,1.59,1.42c.13,1.15-1.47,1.86-1.2,2.61a1.17,1.17,0,0,0,1.34.55C6,13.42,6,9.9,5.44,7.33Zm-1,1.34c-.25.11-.6-.88-1.3-.89S1.91,9,1.6,8.91s-.19-1.47.27-2.63c.21-.53.61-1.56,1.13-1.55s.69.7,1,1.44C4.42,7.23,4.69,8.55,4.4,8.67Z"/><path class="cls-1" d="M7,7.62c0,2.43,1,4.78,1.46,4.72.29-.05.55-1.13.27-2C8.46,9.59,8,9.21,8.1,9s.6-.13.91,0A1.48,1.48,0,0,1,9.7,10c.36,1.36-.36,3.88-1.18,4.19C7.45,14.53,5.78,11.33,5.78,8c0-3.14,1.46-6.39,2.74-6.15.81.16,1.71,1.76,1.61,3.27,0,.11-.2,1.82-1.2,2.07-.29.08-.74.05-.86-.18-.26-.5,1.27-1.29,1.16-2.44C9.18,4,8.8,3.47,8.44,3.47,7.75,3.47,7,5.68,7,7.62Z"/><path class="cls-1" d="M12.87,2.52c-.84-.52-2.22-.8-2.6.31-.31.9.46,1.8.54,4,.1,2.91-1.07,4.11-.7,5.62A2.14,2.14,0,0,0,12.9,14c1.28-.4,2.83-2.25,3-5.1A7.09,7.09,0,0,0,12.87,2.52Zm.57,8.31c-.41.25-1.34.63-1.78.24-.71-.63,1-2.35.41-4.9-.19-.91-.61-1.64-.34-1.85s1,.29,1.3.52A3.53,3.53,0,0,1,14.16,6a3.73,3.73,0,0,1,.52,1.85C14.69,8.28,14.73,10.05,13.44,10.83Z"/></svg>