<svg xmlns="http://www.w3.org/2000/svg" width="57.488" height="57.558" viewBox="0 0 57.488 57.558">
  <g id="Bag" transform="translate(-0.079)">
    <rect id="Container" width="57.488" height="57.488" transform="translate(0.079)" fill="none"/>
    <path id="bag-2" data-name="bag" d="M33.136,0C28.168,0,24.1,3.451,24.1,7.676V12.2H14.834a1.538,1.538,0,0,0-.2,0,1.97,1.97,0,0,0-1.9,1.646L8.5,55.609a1.633,1.633,0,0,0,.55,1.367,2.3,2.3,0,0,0,1.557.582H62.567a2.307,2.307,0,0,0,1.56-.58,1.645,1.645,0,0,0,.55-1.369L60.443,13.848A2.011,2.011,0,0,0,58.336,12.2h-9.26V7.676C49.077,3.451,45.018,0,40.05,0Zm0,3.6h6.917c2.7,0,4.8,1.785,4.8,4.078l0,4.526H28.326V7.676c0-2.293,2.113-4.078,4.809-4.078ZM16.769,15.8h7.324v5.335l0,0A1.984,1.984,0,0,0,26.211,22.9a1.986,1.986,0,0,0,2.115-1.758V15.8h16.52v5.338a2.151,2.151,0,0,0,4.23,0V15.8H56.4l3.855,38.159-47.339,0Z" transform="translate(-7.798)"/>
  </g>
</svg>
