<svg xmlns="http://www.w3.org/2000/svg" width="58" height="58" viewBox="0 0 58 58">
  <g id="Log-in" transform="translate(0 0.442)">
    <rect id="Conntainer" width="58" height="58" transform="translate(0 -0.442)" fill="none"/>
    <path id="Log-in-2" data-name="Log-in" d="M68.331,67.088c0-14.133-11.714-25.592-26.165-25.592S16,52.956,16,67.088h4.026A21.9,21.9,0,0,1,42.165,45.434,21.9,21.9,0,0,1,64.3,67.088ZM42.165,37.56a13.938,13.938,0,0,0,14.09-13.781,14.093,14.093,0,0,0-28.18,0A13.938,13.938,0,0,0,42.165,37.56Zm0-3.939a9.845,9.845,0,1,1,10.064-9.843A9.954,9.954,0,0,1,42.165,33.621Z" transform="translate(-13.621 -10)" fill-rule="evenodd"/>
  </g>
</svg>
