<svg xmlns="http://www.w3.org/2000/svg" width="58" height="58" viewBox="0 0 58 58">
  <g id="Search" transform="translate(0 0)">
    <rect id="Container" width="58" height="58" transform="translate(0 0)" fill="none"/>
    <path id="Search-2" data-name="Search" d="M35.413,14A21.413,21.413,0,1,0,48.889,52.027l9.657,9.657a2.221,2.221,0,0,0,3.138,0,2.194,2.194,0,0,0,0-3.115l-9.657-9.657A21.4,21.4,0,0,0,35.413,14Zm0,4.43A16.983,16.983,0,1,1,18.43,35.413,16.949,16.949,0,0,1,35.413,18.43Z" transform="translate(-9.167 -9.167)"/>
  </g>
</svg>
